HIERARCHY
ROOT hip
{
  OFFSET 0 0 0
  CHANNELS 6 Xposition Yposition Zposition Zrotation Yrotation Xrotation
  JOINT abdomen
  {
    OFFSET 0 20.6881 -0.73152
    CHANNELS 3 Zrotation Xrotation Yrotation
    JOINT chest
    {
      OFFSET 0 11.7043 -0.48768
      CHANNELS 3 Zrotation Xrotation Yrotation
      JOINT neck
      {
        OFFSET 0 22.1894 -2.19456
        CHANNELS 3 Zrotation Xrotation Yrotation
        JOINT head
        {
          OFFSET -0.24384 7.07133 1.2192
          CHANNELS 3 Zrotation Xrotation Yrotation
          JOINT leftEye
          {
            OFFSET 4.14528 8.04674 8.04672
            CHANNELS 3 Zrotation Xrotation Yrotation
            End Site
            {
              OFFSET 1 0 0
            }
          }
          JOINT rightEye
          {
            OFFSET -3.6576 8.04674 8.04672
            CHANNELS 3 Zrotation Xrotation Yrotation
            End Site
            {
              OFFSET 1 0 0
            }
          }
        }
      }
      JOINT rCollar
      {
        OFFSET -2.68224 19.2634 -4.8768
        CHANNELS 3 Zrotation Xrotation Yrotation
        JOINT rShldr
        {
          OFFSET -8.77824 -1.95073 1.46304
          CHANNELS 3 Zrotation Xrotation Yrotation
          JOINT rForeArm
          {
            OFFSET -28.1742 -1.7115 0.48768
            CHANNELS 3 Zrotation Xrotation Yrotation
            JOINT rHand
            {
              OFFSET -22.5879 0.773209 7.07136
              CHANNELS 3 Zrotation Xrotation Yrotation
              JOINT rThumb1
              {
                OFFSET -1.2192 -0.487915 3.41376
                CHANNELS 3 Zrotation Xrotation Yrotation
                JOINT rThumb2
                {
                  OFFSET -3.37035 -0.52449 3.41376
                  CHANNELS 3 Zrotation Xrotation Yrotation
                  End Site
                  {
                    OFFSET -1.78271 -1.18214 1.43049
                  }
                }
              }
              JOINT rIndex1
              {
                OFFSET -7.75947 0.938293 5.60832
                CHANNELS 3 Zrotation Xrotation Yrotation
                JOINT rIndex2
                {
                  OFFSET -2.54057 -0.884171 1.56538
                  CHANNELS 3 Zrotation Xrotation Yrotation
                  End Site
                  {
                    OFFSET -1.62519 -0.234802 1.16502
                  }
                }
              }
              JOINT rMid1
              {
                OFFSET -8.24714 1.18213 3.41376
                CHANNELS 3 Zrotation Xrotation Yrotation
                JOINT rMid2
                {
                  OFFSET -3.10165 -0.590103 1.0647
                  CHANNELS 3 Zrotation Xrotation Yrotation
                  End Site
                  {
                    OFFSET -2.48547 -0.328903 0.83742
                  }
                }
              }
              JOINT rRing1
              {
                OFFSET -8.82822 0.546677 1.51678
                CHANNELS 3 Zrotation Xrotation Yrotation
                JOINT rRing2
                {
                  OFFSET -2.60934 -0.819778 -0.0198488
                  CHANNELS 3 Zrotation Xrotation Yrotation
                  End Site
                  {
                    OFFSET -2.33842 -0.294052 0.168128
                  }
                }
              }
              JOINT rPinky1
              {
                OFFSET -8.27202 -0.0477905 -0.4584
                CHANNELS 3 Zrotation Xrotation Yrotation
                JOINT rPinky2
                {
                  OFFSET -1.82734 -0.647385 -0.700984
                  CHANNELS 3 Zrotation Xrotation Yrotation
                  End Site
                  {
                    OFFSET -1.69225 -0.51767 -0.607171
                  }
                }
              }
            }
          }
        }
      }
      JOINT lCollar
      {
        OFFSET 2.68224 19.2634 -4.8768
        CHANNELS 3 Zrotation Xrotation Yrotation
        JOINT lShldr
        {
          OFFSET 8.77824 -1.95073 1.46304
          CHANNELS 3 Zrotation Xrotation Yrotation
          JOINT lForeArm
          {
            OFFSET 28.1742 -1.7115 0.48768
            CHANNELS 3 Zrotation Xrotation Yrotation
            JOINT lHand
            {
              OFFSET 22.5879 0.773209 7.07136
              CHANNELS 3 Zrotation Xrotation Yrotation
              JOINT lThumb1
              {
                OFFSET 1.2192 -0.487915 3.41376
                CHANNELS 3 Zrotation Xrotation Yrotation
                JOINT lThumb2
                {
                  OFFSET 3.37035 -0.52449 3.41376
                  CHANNELS 3 Zrotation Xrotation Yrotation
                  End Site
                  {
                    OFFSET 1.78271 -1.18214 1.43049
                  }
                }
              }
              JOINT lIndex1
              {
                OFFSET 7.75947 0.938293 5.60832
                CHANNELS 3 Zrotation Xrotation Yrotation
                JOINT lIndex2
                {
                  OFFSET 2.54057 -0.884171 1.56538
                  CHANNELS 3 Zrotation Xrotation Yrotation
                  End Site
                  {
                    OFFSET 1.62519 -0.234802 1.16502
                  }
                }
              }
              JOINT lMid1
              {
                OFFSET 8.24714 1.18213 3.41376
                CHANNELS 3 Zrotation Xrotation Yrotation
                JOINT lMid2
                {
                  OFFSET 3.10165 -0.590103 1.0647
                  CHANNELS 3 Zrotation Xrotation Yrotation
                  End Site
                  {
                    OFFSET 2.48547 -0.328903 0.83742
                  }
                }
              }
              JOINT lRing1
              {
                OFFSET 8.82822 0.546677 1.51678
                CHANNELS 3 Zrotation Xrotation Yrotation
                JOINT lRing2
                {
                  OFFSET 2.60934 -0.819778 -0.0198488
                  CHANNELS 3 Zrotation Xrotation Yrotation
                  End Site
                  {
                    OFFSET 2.33842 -0.294052 0.168128
                  }
                }
              }
              JOINT lPinky1
              {
                OFFSET 8.27202 -0.0477905 -0.4584
                CHANNELS 3 Zrotation Xrotation Yrotation
                JOINT lPinky2
                {
                  OFFSET 1.82734 -0.647385 -0.700984
                  CHANNELS 3 Zrotation Xrotation Yrotation
                  End Site
                  {
                    OFFSET 1.69225 -0.51767 -0.607171
                  }
                }
              }
            }
          }
        }
      }
    }
  }
  JOINT rButtock
  {
    OFFSET -8.77824 4.35084 1.2192
    CHANNELS 3 Zrotation Xrotation Yrotation
    JOINT rThigh
    {
      OFFSET 0 -1.70687 -2.19456
      CHANNELS 3 Zrotation Xrotation Yrotation
      JOINT rShin
      {
        OFFSET 0 -36.8199 0.73152
        CHANNELS 3 Zrotation Xrotation Yrotation
        JOINT rFoot
        {
          OFFSET 0.73152 -45.1104 -5.12064
          CHANNELS 3 Zrotation Xrotation Yrotation
          End Site
          {
            OFFSET -1.1221 -3.69964 12.103
          }
        }
      }
    }
  }
  JOINT lButtock
  {
    OFFSET 8.77824 4.35084 1.2192
    CHANNELS 3 Zrotation Xrotation Yrotation
    JOINT lThigh
    {
      OFFSET 0 -1.70687 -2.19456
      CHANNELS 3 Zrotation Xrotation Yrotation
      JOINT lShin
      {
        OFFSET 0 -36.8199 0.73152
        CHANNELS 3 Zrotation Xrotation Yrotation
        JOINT lFoot
        {
          OFFSET -0.73152 -45.1104 -5.12064
          CHANNELS 3 Zrotation Xrotation Yrotation
          End Site
          {
            OFFSET 1.1221 -3.69964 12.103
          }
        }
      }
    }
  }
}
MOTION
Frames:	4
Frame Time:	0.00833333
-35.8314 83.3714 41.6737 -176.369 38.7586 -180.36 -1.2904 14.0673 3.13899 1.64029 -7.02244 0.978145 -12.4206 -1.08659 -8.19717 17.8649 12.4916 -12.4715 -0.0 0.0 0.0 -0.0 0.0 0.0 -1.08133e-13 -1.4551e-13 4.54869e-13 82.261 13.3905 -2.15783 -15.8665 -8.56374 29.3913 -0.056642 6.77579 0.956784 -1.7847e-09 3.77081e-09 2.09925e-09 -3.07466e-09 6.5288e-09 3.64731e-09 -1.7847e-09 3.77081e-09 2.09924e-09 7.73091 5.47488 0.417314 -1.7847e-09 3.77081e-09 2.09925e-09 2.90554 0.965183 0.102902 -1.78469e-09 3.77081e-09 2.09925e-09 10.2786 0.731801 0.0259123 -1.7847e-09 3.77081e-09 2.09926e-09 2.22167 -0.733487 -0.20892 -1.08102e-13 -1.4551e-13 4.5472e-13 -75.0352 14.403 4.07116 16.4388 -9.10137 -30.6046 0.0113782 3.04406 -0.428221 -1.65392e-09 1.45999e-09 1.42482e-09 -2.85905e-09 2.54255e-09 2.47571e-09 -1.65392e-09 1.45999e-09 1.42483e-09 -7.73091 5.47488 -0.417314 -1.65392e-09 1.45999e-09 1.42482e-09 -2.90554 0.965183 -0.102902 -1.65392e-09 1.45999e-09 1.42482e-09 -10.2786 0.731801 -0.0259123 -1.65392e-09 1.45999e-09 1.42482e-09 -2.22167 -0.733487 0.20892 -2.03217e-16 0.0 -3.88251e-19 -7.85175 -5.88071 5.46155 -0.113709 23.3144 0.321457 1.94644 -14.9193 6.84939 2.03217e-16 0.0 3.88251e-19 15.4089 -9.94256 -14.9686 0.114282 25.2381 -0.35027 -1.6194 -7.74289 -9.02921
-35.3609 83.4536 42.1375 -175.996 38.4241 -180.121 -1.15587 14.0682 3.19745 1.59026 -6.8903 0.998216 -12.3589 -1.17952 -8.17699 17.7921 12.4234 -12.425 -0.0 0.0 0.0 -0.0 0.0 0.0 -8.75566e-14 -1.17075e-13 4.84293e-13 82.1761 13.5596 -1.82933 -15.8165 -8.51804 29.2857 -0.0609382 7.06079 0.997353 -2.58042e-09 4.81738e-09 2.09119e-09 -4.45031e-09 8.34263e-09 3.64088e-09 -2.58043e-09 4.81739e-09 2.09118e-09 7.73091 5.47488 0.417314 -2.58043e-09 4.81739e-09 2.0912e-09 2.90554 0.965183 0.102902 -2.58041e-09 4.81739e-09 2.09119e-09 10.2786 0.731801 0.0259123 -2.58043e-09 4.81738e-09 2.0912e-09 2.22167 -0.733487 -0.20892 -8.7507e-14 -1.17075e-13 4.84149e-13 -75.1368 14.0201 4.0305 16.3826 -9.04774 -30.4843 0.0138241 3.44064 -0.484089 -2.33198e-09 1.47598e-09 1.80425e-09 -4.03006e-09 2.57878e-09 3.13761e-09 -2.33199e-09 1.47598e-09 1.80426e-09 -7.73091 5.47488 -0.417314 -2.33199e-09 1.47598e-09 1.80425e-09 -2.90554 0.965183 -0.102902 -2.33199e-09 1.47598e-09 1.80425e-09 -10.2786 0.731801 -0.0259123 -2.33198e-09 1.47598e-09 1.80425e-09 -2.22167 -0.733487 0.20892 -2.03217e-16 0.0 -3.88251e-19 -7.21963 -5.86038 5.38883 -0.112749 23.2914 0.323968 1.831 -14.8566 6.52355 2.03217e-16 0.0 3.88251e-19 15.7146 -10.3217 -15.0544 0.118202 25.5894 -0.359564 -1.3712 -7.07856 -8.32437
-34.9266 83.5487 42.5572 -175.931 37.9746 -180.106 -1.18413 14.0665 3.21738 1.58655 -6.69089 1.0048 -12.266 -1.32433 -8.15298 17.6955 12.3391 -12.3722 -0.0 0.0 0.0 -0.0 0.0 0.0 -4.13685e-14 -7.63571e-14 3.63847e-13 82.0768 13.5478 -1.43601 -15.7475 -8.45502 29.1405 -0.0705184 7.61132 1.07595 -3.14837e-09 5.28743e-09 1.75006e-09 -5.43415e-09 9.15939e-09 3.05643e-09 -3.14838e-09 5.28744e-09 1.75005e-09 7.73091 5.47488 0.417314 -3.14838e-09 5.28744e-09 1.75006e-09 2.90554 0.965183 0.102902 -3.14837e-09 5.28744e-09 1.75006e-09 10.2786 0.731801 0.0259123 -3.14838e-09 5.28744e-09 1.75007e-09 2.22167 -0.733487 -0.20892 -4.12976e-14 -7.6359e-14 3.63683e-13 -75.2598 13.5825 3.95316 16.3167 -8.98507 -30.3437 0.0186395 4.00681 -0.56397 -2.84279e-09 9.63811e-10 1.87952e-09 -4.91229e-09 1.69955e-09 3.27291e-09 -2.84279e-09 9.63812e-10 1.87953e-09 -7.73091 5.47488 -0.417314 -2.84279e-09 9.63806e-10 1.87952e-09 -2.90554 0.965183 -0.102902 -2.8428e-09 9.63807e-10 1.87952e-09 -10.2786 0.731801 -0.0259123 -2.84279e-09 9.63808e-10 1.87952e-09 -2.22167 -0.733487 0.20892 -2.03217e-16 0.0 -3.88251e-19 -6.76117 -5.82131 5.1529 -0.111721 23.2795 0.326779 1.71567 -14.7891 6.19709 2.03217e-16 0.0 3.88251e-19 15.8346 -10.7226 -15.0466 0.122798 25.9726 -0.369658 -1.10657 -6.40802 -7.45306
-34.5407 83.676 42.9724 -176.073 37.4914 -180.103 -1.26338 14.0652 3.21646 1.60238 -6.49216 1.00536 -12.1834 -1.46877 -8.13469 17.6052 12.2589 -12.3281 -0.0 0.0 0.0 -0.0 0.0 0.0 8.00198e-15 -3.34406e-14 1.84761e-13 81.9692 13.4897 -1.0537 -15.6797 -8.39323 28.9988 -0.0822295 8.18751 1.15856 -3.38694e-09 5.22334e-09 1.227e-09 -5.84971e-09 9.05112e-09 2.15425e-09 -3.38694e-09 5.22334e-09 1.22699e-09 7.73091 5.47488 0.417314 -3.38694e-09 5.22334e-09 1.227e-09 2.90554 0.965183 0.102902 -3.38693e-09 5.22334e-09 1.227e-09 10.2786 0.731801 0.0259123 -3.38694e-09 5.22334e-09 1.227e-09 2.22167 -0.733487 -0.20892 8.08771e-15 -3.34439e-14 1.84572e-13 -75.4031 13.1998 3.88491 16.2509 -8.9226 -30.2038 0.0251273 4.58391 -0.645564 -3.05666e-09 3.47278e-10 1.77568e-09 -5.28141e-09 6.3661e-10 3.09629e-09 -3.05665e-09 3.47281e-10 1.77569e-09 -7.73091 5.47488 -0.417314 -3.05666e-09 3.47273e-10 1.77569e-09 -2.90554 0.965183 -0.102902 -3.05667e-09 3.47273e-10 1.77568e-09 -10.2786 0.731801 -0.0259123 -3.05665e-09 3.47276e-10 1.77568e-09 -2.22167 -0.733487 0.20892 -2.03217e-16 0.0 -3.88251e-19 -6.39455 -5.76626 4.83053 -0.11032 23.2487 0.329289 1.61298 -14.7143 5.90874 2.03217e-16 0.0 3.88251e-19 15.8399 -11.1465 -14.9689 0.128146 26.3995 -0.38019 -0.833432 -5.7229 -6.4404
